<mxfile host="app.diagrams.net" modified="2023-01-31T06:59:01.205Z" agent="5.0 (X11; Linux x86_64) AppleWebKit/537.36 (KHTML, like Gecko) Chrome/108.0.0.0 Safari/537.36" etag="g6TvztLvkjl9UnZTBpkm" version="20.8.13" type="github">
  <diagram id="6JjqR04NzSdjiCu4Dxnf" name="Page-1">
    <mxGraphModel dx="880" dy="421" grid="1" gridSize="10" guides="1" tooltips="1" connect="1" arrows="1" fold="1" page="1" pageScale="1" pageWidth="827" pageHeight="1169" math="0" shadow="0">
      <root>
        <mxCell id="0" />
        <mxCell id="1" parent="0" />
        <mxCell id="g1a5hRw7U2E6IYuk5Pdz-1" value="" style="rounded=1;whiteSpace=wrap;html=1;fillColor=none;" parent="1" vertex="1">
          <mxGeometry x="80" y="90" width="740" height="380" as="geometry" />
        </mxCell>
        <mxCell id="g1a5hRw7U2E6IYuk5Pdz-2" value="&lt;font size=&quot;1&quot;&gt;&lt;b style=&quot;font-size: 24px;&quot;&gt;Service A&lt;/b&gt;&lt;/font&gt;" style="rounded=1;whiteSpace=wrap;html=1;fillColor=#f8cecc;strokeColor=#b85450;" parent="1" vertex="1">
          <mxGeometry x="130" y="130" width="150" height="200" as="geometry" />
        </mxCell>
        <mxCell id="g1a5hRw7U2E6IYuk5Pdz-3" value="&lt;font style=&quot;font-size: 24px;&quot;&gt;&lt;b&gt;Service B&lt;/b&gt;&lt;/font&gt;" style="rounded=1;whiteSpace=wrap;html=1;fillColor=#e1d5e7;strokeColor=#9673a6;" parent="1" vertex="1">
          <mxGeometry x="375" y="130" width="150" height="200" as="geometry" />
        </mxCell>
        <mxCell id="g1a5hRw7U2E6IYuk5Pdz-5" value="&lt;font style=&quot;font-size: 18px;&quot;&gt;Logging&lt;/font&gt;" style="rounded=1;whiteSpace=wrap;html=1;" parent="1" vertex="1">
          <mxGeometry x="145" y="250" width="120" height="60" as="geometry" />
        </mxCell>
        <mxCell id="g1a5hRw7U2E6IYuk5Pdz-6" value="&lt;font style=&quot;font-size: 24px;&quot;&gt;&lt;b&gt;Service C&lt;/b&gt;&lt;/font&gt;" style="rounded=1;whiteSpace=wrap;html=1;fillColor=#ffe6cc;strokeColor=#d79b00;" parent="1" vertex="1">
          <mxGeometry x="610" y="130" width="140" height="200" as="geometry" />
        </mxCell>
        <mxCell id="g1a5hRw7U2E6IYuk5Pdz-7" value="&lt;font style=&quot;font-size: 18px;&quot;&gt;Logging&lt;/font&gt;" style="rounded=1;whiteSpace=wrap;html=1;" parent="1" vertex="1">
          <mxGeometry x="620" y="250" width="120" height="60" as="geometry" />
        </mxCell>
        <mxCell id="g1a5hRw7U2E6IYuk5Pdz-8" value="&lt;font style=&quot;font-size: 18px;&quot;&gt;Logging&lt;/font&gt;" style="rounded=1;whiteSpace=wrap;html=1;" parent="1" vertex="1">
          <mxGeometry x="390" y="250" width="120" height="60" as="geometry" />
        </mxCell>
        <mxCell id="g1a5hRw7U2E6IYuk5Pdz-10" value="&lt;font style=&quot;font-size: 20px;&quot;&gt;&lt;b&gt;Centralized Logs location&lt;/b&gt;&lt;/font&gt;" style="rounded=1;whiteSpace=wrap;html=1;fillColor=#e3c800;strokeColor=#B09500;fontColor=#000000;" parent="1" vertex="1">
          <mxGeometry x="140" y="515" width="640" height="70" as="geometry" />
        </mxCell>
        <mxCell id="g1a5hRw7U2E6IYuk5Pdz-11" value="" style="shape=flexArrow;endArrow=classic;html=1;rounded=0;exitX=0.5;exitY=1;exitDx=0;exitDy=0;fillColor=#fa6800;strokeColor=#C73500;" parent="1" source="g1a5hRw7U2E6IYuk5Pdz-2" edge="1">
          <mxGeometry width="50" height="50" relative="1" as="geometry">
            <mxPoint x="390" y="350" as="sourcePoint" />
            <mxPoint x="205" y="380" as="targetPoint" />
          </mxGeometry>
        </mxCell>
        <mxCell id="g1a5hRw7U2E6IYuk5Pdz-12" value="" style="shape=flexArrow;endArrow=classic;html=1;rounded=0;exitX=0.5;exitY=1;exitDx=0;exitDy=0;fillColor=#fa6800;strokeColor=#C73500;" parent="1" source="g1a5hRw7U2E6IYuk5Pdz-6" edge="1">
          <mxGeometry width="50" height="50" relative="1" as="geometry">
            <mxPoint x="600" y="380" as="sourcePoint" />
            <mxPoint x="680" y="380" as="targetPoint" />
          </mxGeometry>
        </mxCell>
        <mxCell id="g1a5hRw7U2E6IYuk5Pdz-13" value="" style="shape=flexArrow;endArrow=classic;html=1;rounded=0;entryX=0.516;entryY=-0.039;entryDx=0;entryDy=0;fillColor=#fa6800;strokeColor=#C73500;entryPerimeter=0;" parent="1" target="g1a5hRw7U2E6IYuk5Pdz-15" edge="1">
          <mxGeometry width="50" height="50" relative="1" as="geometry">
            <mxPoint x="450" y="330" as="sourcePoint" />
            <mxPoint x="440" y="300" as="targetPoint" />
          </mxGeometry>
        </mxCell>
        <mxCell id="g1a5hRw7U2E6IYuk5Pdz-15" value="Centralized logging service (Prometheus)" style="rounded=1;whiteSpace=wrap;html=1;fontSize=20;fillColor=#f0a30a;fontColor=#000000;strokeColor=#BD7000;" parent="1" vertex="1">
          <mxGeometry x="130" y="380" width="620" height="60" as="geometry" />
        </mxCell>
        <mxCell id="g1a5hRw7U2E6IYuk5Pdz-17" value="" style="shape=flexArrow;endArrow=classic;html=1;rounded=0;fontSize=20;entryX=0.486;entryY=0.019;entryDx=0;entryDy=0;entryPerimeter=0;fillColor=#fa6800;strokeColor=#C73500;" parent="1" target="g1a5hRw7U2E6IYuk5Pdz-10" edge="1">
          <mxGeometry width="50" height="50" relative="1" as="geometry">
            <mxPoint x="450" y="440" as="sourcePoint" />
            <mxPoint x="450" y="520" as="targetPoint" />
          </mxGeometry>
        </mxCell>
      </root>
    </mxGraphModel>
  </diagram>
</mxfile>
